<svg width="218" height="38" viewBox="0 0 218 38" fill="none" xmlns="http://www.w3.org/2000/svg">
<path d="M212.555 15.75V1.1084H217.02V36.9445H212.555V32.5418C210.349 35.9206 207.115 37.61 202.856 37.61C199.264 37.61 196.184 36.3302 193.67 33.7193C191.155 31.1083 189.872 27.8831 189.872 24.1459C189.872 20.4087 191.155 17.2346 193.67 14.6237C196.184 12.0128 199.264 10.6818 202.856 10.6818C207.115 10.6818 210.349 12.3712 212.555 15.75ZM203.42 33.3097C206.038 33.3097 208.193 32.4394 209.938 30.6988C211.683 28.907 212.555 26.7568 212.555 24.1459C212.555 21.535 211.683 19.3848 209.938 17.6442C208.193 15.8524 206.038 14.9821 203.42 14.9821C200.854 14.9821 198.699 15.8524 196.954 17.6442C195.209 19.3848 194.337 21.535 194.337 24.1459C194.337 26.7568 195.209 28.907 196.954 30.6988C198.699 32.4394 200.854 33.3097 203.42 33.3097Z" fill="#FF011E"/>
<path d="M180.338 11.3475V15.6478C181.826 12.4737 184.495 10.8867 188.344 10.8867V15.5454C186.137 15.443 184.29 16.0062 182.699 17.286C181.108 18.5659 180.338 20.5625 180.338 23.3782V36.9447H175.873V11.3475H180.338Z" fill="#FF011E"/>
<path d="M164.644 15.7499V11.3472H169.109V36.9444H164.644V32.5417C162.437 35.9205 159.204 37.6099 154.945 37.6099C151.352 37.6099 148.273 36.3301 145.759 33.7191C143.244 31.1082 141.961 27.883 141.961 24.1458C141.961 20.4086 143.244 17.2345 145.759 14.6236C148.273 12.0127 151.352 10.6816 154.945 10.6816C159.204 10.6816 162.437 12.3711 164.644 15.7499ZM155.509 33.3096C158.127 33.3096 160.282 32.4393 162.027 30.6987C163.772 28.9069 164.644 26.7567 164.644 24.1458C164.644 21.5349 163.772 19.3847 162.027 17.6441C160.282 15.8523 158.127 14.982 155.509 14.982C152.943 14.982 150.788 15.8523 149.043 17.6441C147.298 19.3847 146.426 21.5349 146.426 24.1458C146.426 26.7567 147.298 28.9069 149.043 30.6987C150.788 32.4393 152.943 33.3096 155.509 33.3096Z" fill="#FF011E"/>
<path d="M127.794 37.6099C123.945 37.6099 120.712 36.3301 118.146 33.7703C115.58 31.1594 114.297 27.9854 114.297 24.1458C114.297 20.3062 115.58 17.1321 118.146 14.5724C120.712 11.9615 123.945 10.6816 127.794 10.6816C132.874 10.6816 137.134 13.2926 139.135 17.3881L135.389 19.5383C134.106 16.825 131.232 15.0332 127.794 15.0332C125.228 15.0332 123.073 15.9035 121.328 17.6441C119.634 19.3847 118.762 21.5349 118.762 24.1458C118.762 26.7055 119.634 28.8557 121.328 30.5963C123.073 32.3369 125.228 33.2072 127.794 33.2072C131.232 33.2072 134.106 31.4666 135.543 28.7533L139.341 30.9546C137.134 34.999 132.772 37.6099 127.794 37.6099Z" fill="#FF011E"/>
<path d="M108.445 26.1936H86.9423C87.8148 30.7499 91.3558 33.412 96.2311 33.412C99.6181 33.412 102.081 32.1833 103.621 29.6748L107.419 31.8249C104.904 35.6645 101.158 37.6099 96.1285 37.6099C92.0742 37.6099 88.7385 36.3301 86.1726 33.8215C83.6579 31.2618 82.375 28.0366 82.375 24.1458C82.375 20.3062 83.6066 17.0809 86.1212 14.5212C88.6359 11.9615 91.869 10.6816 95.8205 10.6816C99.5668 10.6816 102.646 12.0127 105.007 14.6748C107.419 17.2857 108.599 20.4598 108.599 24.197C108.599 24.8625 108.548 25.528 108.445 26.1936ZM95.8205 14.8796C91.0479 14.8796 87.7121 17.7977 86.9423 22.3028H104.083C103.313 17.4393 99.9261 14.8796 95.8205 14.8796Z" fill="white"/>
<path d="M66.1549 37.6099C62.306 37.6099 59.0729 36.3301 56.507 33.7703C53.941 31.1594 52.658 27.9854 52.658 24.1458C52.658 20.3062 53.941 17.1321 56.507 14.5724C59.0729 11.9615 62.306 10.6816 66.1549 10.6816C71.2355 10.6816 75.495 13.2926 77.4964 17.3881L73.7501 19.5383C72.4672 16.825 69.5933 15.0332 66.1549 15.0332C63.589 15.0332 61.4336 15.9035 59.6887 17.6441C57.9952 19.3847 57.1228 21.5349 57.1228 24.1458C57.1228 26.7055 57.9952 28.8557 59.6887 30.5963C61.4336 32.3369 63.589 33.2072 66.1549 33.2072C69.5933 33.2072 72.4672 31.4666 73.9041 28.7533L77.7017 30.9546C75.495 34.999 71.1329 37.6099 66.1549 37.6099Z" fill="white"/>
<path d="M40.813 15.7499V11.3472H45.2777V36.9444H40.813V32.5417C38.6063 35.9205 35.3732 37.6099 31.1137 37.6099C27.5214 37.6099 24.4422 36.3301 21.9276 33.7191C19.413 31.1082 18.13 27.883 18.13 24.1458C18.13 20.4086 19.413 17.2345 21.9276 14.6236C24.4422 12.0127 27.5214 10.6816 31.1137 10.6816C35.3732 10.6816 38.6063 12.3711 40.813 15.7499ZM31.6782 33.3096C34.2955 33.3096 36.4509 32.4393 38.1957 30.6987C39.9406 28.9069 40.813 26.7567 40.813 24.1458C40.813 21.5349 39.9406 19.3847 38.1957 17.6441C36.4509 15.8523 34.2955 14.982 31.6782 14.982C29.1122 14.982 26.9568 15.8523 25.212 17.6441C23.4672 19.3847 22.5947 21.5349 22.5947 24.1458C22.5947 26.7567 23.4672 28.9069 25.212 30.6987C26.9568 32.4393 29.1122 33.3096 31.6782 33.3096Z" fill="white"/>
<path d="M15.5179 0.442852V4.74319C11.0018 4.38483 8.7438 6.33021 8.7438 10.5794V11.3473H15.5179V15.6476H8.7438V36.9445H4.27905V15.6476H0.173531V11.3473H4.27905V10.5794C4.27905 3.6681 8.28193 -0.017898 15.5179 0.442852Z" fill="white"/>
</svg>
